%TF.GenerationSoftware,KiCad,Pcbnew,7.0.7*%
%TF.CreationDate,2023-09-08T15:52:27+02:00*%
%TF.ProjectId,Minimal-APRS-TX,4d696e69-6d61-46c2-9d41-5052532d5458,rev?*%
%TF.SameCoordinates,Original*%
%TF.FileFunction,Soldermask,Top*%
%TF.FilePolarity,Negative*%
%FSLAX46Y46*%
G04 Gerber Fmt 4.6, Leading zero omitted, Abs format (unit mm)*
G04 Created by KiCad (PCBNEW 7.0.7) date 2023-09-08 15:52:27*
%MOMM*%
%LPD*%
G01*
G04 APERTURE LIST*
G04 Aperture macros list*
%AMRoundRect*
0 Rectangle with rounded corners*
0 $1 Rounding radius*
0 $2 $3 $4 $5 $6 $7 $8 $9 X,Y pos of 4 corners*
0 Add a 4 corners polygon primitive as box body*
4,1,4,$2,$3,$4,$5,$6,$7,$8,$9,$2,$3,0*
0 Add four circle primitives for the rounded corners*
1,1,$1+$1,$2,$3*
1,1,$1+$1,$4,$5*
1,1,$1+$1,$6,$7*
1,1,$1+$1,$8,$9*
0 Add four rect primitives between the rounded corners*
20,1,$1+$1,$2,$3,$4,$5,0*
20,1,$1+$1,$4,$5,$6,$7,0*
20,1,$1+$1,$6,$7,$8,$9,0*
20,1,$1+$1,$8,$9,$2,$3,0*%
G04 Aperture macros list end*
%ADD10RoundRect,0.100000X-0.130000X-0.100000X0.130000X-0.100000X0.130000X0.100000X-0.130000X0.100000X0*%
%ADD11R,1.500000X1.700000*%
%ADD12C,1.700000*%
%ADD13O,1.700000X1.700000*%
%ADD14R,1.700000X1.700000*%
%ADD15RoundRect,0.150000X0.825000X0.150000X-0.825000X0.150000X-0.825000X-0.150000X0.825000X-0.150000X0*%
%ADD16R,1.200000X1.400000*%
%ADD17RoundRect,0.075000X-0.312500X-0.075000X0.312500X-0.075000X0.312500X0.075000X-0.312500X0.075000X0*%
%ADD18RoundRect,0.075000X-0.075000X-0.312500X0.075000X-0.312500X0.075000X0.312500X-0.075000X0.312500X0*%
%ADD19R,4.800000X4.800000*%
G04 APERTURE END LIST*
D10*
%TO.C,L1*%
X27080000Y-21000000D03*
X27720000Y-21000000D03*
%TD*%
D11*
%TO.C,H2*%
X21800000Y-21400000D03*
D12*
X22400000Y-21400000D03*
D11*
X21800000Y-23940000D03*
D13*
X22400000Y-23940000D03*
%TD*%
D11*
%TO.C,H1*%
X42200000Y-29020000D03*
D12*
X41600000Y-29020000D03*
D11*
X42200000Y-26480000D03*
D13*
X41600000Y-26480000D03*
D11*
X42200000Y-23940000D03*
D12*
X41600000Y-23940000D03*
D11*
X42200000Y-21400000D03*
D13*
X41600000Y-21400000D03*
%TD*%
D14*
%TO.C,H4*%
X32000000Y-29300000D03*
%TD*%
D15*
%TO.C,U1*%
X39300000Y-29050000D03*
X39300000Y-27780000D03*
X39300000Y-26510000D03*
X39300000Y-25240000D03*
X39300000Y-23970000D03*
X39300000Y-22700000D03*
X39300000Y-21430000D03*
X34350000Y-21430000D03*
X34350000Y-22700000D03*
X34350000Y-23970000D03*
X34350000Y-25240000D03*
X34350000Y-26510000D03*
X34350000Y-27780000D03*
X34350000Y-29050000D03*
%TD*%
D14*
%TO.C,H3*%
X32000000Y-21100000D03*
%TD*%
D16*
%TO.C,X1*%
X21900000Y-27000000D03*
X21900000Y-29200000D03*
X23600000Y-29200000D03*
X23600000Y-27000000D03*
%TD*%
D17*
%TO.C,U2*%
X25312500Y-23250000D03*
X25312500Y-23900000D03*
X25312500Y-24550000D03*
X25312500Y-25200000D03*
X25312500Y-25850000D03*
X25312500Y-26500000D03*
X25312500Y-27150000D03*
D18*
X26350000Y-28187500D03*
X27000000Y-28187500D03*
X27650000Y-28187500D03*
X28300000Y-28187500D03*
X28950000Y-28187500D03*
X29600000Y-28187500D03*
X30250000Y-28187500D03*
D17*
X31287500Y-27150000D03*
X31287500Y-26500000D03*
X31287500Y-25850000D03*
X31287500Y-25200000D03*
X31287500Y-24550000D03*
X31287500Y-23900000D03*
X31287500Y-23250000D03*
D18*
X30250000Y-22212500D03*
X29600000Y-22212500D03*
X28950000Y-22212500D03*
X28300000Y-22212500D03*
X27650000Y-22212500D03*
X27000000Y-22212500D03*
X26350000Y-22212500D03*
D19*
X28300000Y-25200000D03*
%TD*%
D10*
%TO.C,C1*%
X28735000Y-21000000D03*
X29375000Y-21000000D03*
%TD*%
M02*
