%TF.GenerationSoftware,KiCad,Pcbnew,7.0.7*%
%TF.CreationDate,2023-09-08T15:52:27+02:00*%
%TF.ProjectId,Minimal-APRS-TX,4d696e69-6d61-46c2-9d41-5052532d5458,rev?*%
%TF.SameCoordinates,Original*%
%TF.FileFunction,Copper,L2,Bot*%
%TF.FilePolarity,Positive*%
%FSLAX46Y46*%
G04 Gerber Fmt 4.6, Leading zero omitted, Abs format (unit mm)*
G04 Created by KiCad (PCBNEW 7.0.7) date 2023-09-08 15:52:27*
%MOMM*%
%LPD*%
G01*
G04 APERTURE LIST*
%TA.AperFunction,ConnectorPad*%
%ADD10R,1.500000X1.700000*%
%TD*%
%TA.AperFunction,ComponentPad*%
%ADD11C,1.700000*%
%TD*%
%TA.AperFunction,ComponentPad*%
%ADD12O,1.700000X1.700000*%
%TD*%
%TA.AperFunction,ComponentPad*%
%ADD13R,1.700000X1.700000*%
%TD*%
%TA.AperFunction,ViaPad*%
%ADD14C,0.600000*%
%TD*%
%TA.AperFunction,Conductor*%
%ADD15C,0.203200*%
%TD*%
%TA.AperFunction,Conductor*%
%ADD16C,0.508000*%
%TD*%
%TA.AperFunction,Conductor*%
%ADD17C,0.381000*%
%TD*%
%TA.AperFunction,Conductor*%
%ADD18C,0.254000*%
%TD*%
G04 APERTURE END LIST*
D10*
%TO.P,H2,1,Pin_1*%
%TO.N,/PB0*%
X21800000Y-21400000D03*
D11*
X22400000Y-21400000D03*
D10*
%TO.P,H2,2,Pin_2*%
%TO.N,/UPDI*%
X21800000Y-23940000D03*
D12*
X22400000Y-23940000D03*
%TD*%
D10*
%TO.P,H1,1,Pin_1*%
%TO.N,VCC*%
X42200000Y-29020000D03*
D11*
X41600000Y-29020000D03*
D10*
%TO.P,H1,2,Pin_2*%
%TO.N,GND*%
X42200000Y-26480000D03*
D12*
X41600000Y-26480000D03*
D10*
%TO.P,H1,3,Pin_3*%
%TO.N,/RXD*%
X42200000Y-23940000D03*
D11*
X41600000Y-23940000D03*
D10*
%TO.P,H1,4,Pin_4*%
%TO.N,/TXD*%
X42200000Y-21400000D03*
D12*
X41600000Y-21400000D03*
%TD*%
D13*
%TO.P,H4,1,Pin_1*%
%TO.N,GND*%
X32000000Y-29300000D03*
%TD*%
%TO.P,H3,1,Pin_1*%
%TO.N,/RF_OUT*%
X32000000Y-21100000D03*
%TD*%
D14*
%TO.N,GND*%
X26800000Y-26400000D03*
X26800000Y-25700000D03*
X32400000Y-27200000D03*
X21900000Y-29200000D03*
X27600000Y-25700000D03*
X23600000Y-27000000D03*
X28400000Y-25700000D03*
X28400000Y-25000000D03*
X25000000Y-29700000D03*
X26800000Y-25000000D03*
X28400000Y-26400000D03*
X27600000Y-25000000D03*
X27600000Y-26400000D03*
%TO.N,VCC*%
X25000000Y-28700000D03*
X30103192Y-21330005D03*
X35800000Y-22300000D03*
X24200000Y-25200000D03*
X36400000Y-27996000D03*
X25200000Y-21400000D03*
X30300000Y-29200000D03*
%TO.N,/DIO2*%
X27700000Y-29200000D03*
X37700000Y-25300000D03*
%TO.N,/NSS*%
X37500000Y-23500000D03*
X35746960Y-23512246D03*
%TO.N,/UPDI*%
X32500000Y-23800000D03*
%TO.N,/PB0*%
X32500000Y-22900000D03*
%TD*%
D15*
%TO.N,GND*%
X39818400Y-24698400D02*
X28701600Y-24698400D01*
X24500000Y-29200000D02*
X21900000Y-29200000D01*
X25000000Y-29700000D02*
X23600000Y-28300000D01*
X25000000Y-29700000D02*
X24500000Y-29200000D01*
X23600000Y-28300000D02*
X23600000Y-27000000D01*
X41600000Y-26480000D02*
X39818400Y-24698400D01*
X33120000Y-26480000D02*
X32400000Y-27200000D01*
X28701600Y-24698400D02*
X28300000Y-25100000D01*
X41600000Y-26480000D02*
X33120000Y-26480000D01*
D16*
%TO.N,VCC*%
X30300000Y-28392000D02*
X30300000Y-29200000D01*
X30033197Y-21400000D02*
X30103192Y-21330005D01*
X35800000Y-22300000D02*
X33304000Y-22300000D01*
D15*
X33255600Y-22251600D02*
X33304000Y-22300000D01*
D17*
X24200000Y-25200000D02*
X25000000Y-26000000D01*
D16*
X40576000Y-27996000D02*
X41600000Y-29020000D01*
X25200000Y-21400000D02*
X30033197Y-21400000D01*
D15*
X30103192Y-21330005D02*
X31024787Y-22251600D01*
X26101600Y-29801600D02*
X25000000Y-28700000D01*
X30300000Y-29200000D02*
X29698400Y-29801600D01*
D16*
X30696000Y-27996000D02*
X30300000Y-28392000D01*
D17*
X25000000Y-26000000D02*
X25000000Y-28700000D01*
D16*
X36400000Y-27996000D02*
X30696000Y-27996000D01*
X36400000Y-27996000D02*
X40576000Y-27996000D01*
D15*
X31024787Y-22251600D02*
X33255600Y-22251600D01*
X29698400Y-29801600D02*
X26101600Y-29801600D01*
D17*
%TO.N,/DIO2*%
X27700000Y-29200000D02*
X31600000Y-25300000D01*
X31600000Y-25300000D02*
X37700000Y-25300000D01*
D15*
%TO.N,/NSS*%
X37487754Y-23512246D02*
X35746960Y-23512246D01*
X37500000Y-23500000D02*
X37487754Y-23512246D01*
D17*
%TO.N,/UPDI*%
X32228618Y-23800000D02*
X32088618Y-23940000D01*
X32500000Y-23800000D02*
X32228618Y-23800000D01*
X32088618Y-23940000D02*
X22400000Y-23940000D01*
D18*
%TO.N,/PB0*%
X32500000Y-22900000D02*
X32000000Y-23400000D01*
X24400000Y-23400000D02*
X22400000Y-21400000D01*
X32000000Y-23400000D02*
X24400000Y-23400000D01*
%TD*%
%TA.AperFunction,Conductor*%
%TO.N,GND*%
G36*
X40784091Y-20520185D02*
G01*
X40829846Y-20572989D01*
X40839790Y-20642147D01*
X40812905Y-20703165D01*
X40722317Y-20813546D01*
X40624769Y-20996043D01*
X40564699Y-21194067D01*
X40544417Y-21400000D01*
X40564699Y-21605932D01*
X40585157Y-21673373D01*
X40624768Y-21803954D01*
X40722315Y-21986450D01*
X40722317Y-21986452D01*
X40853589Y-22146410D01*
X40950209Y-22225702D01*
X41013550Y-22277685D01*
X41196046Y-22375232D01*
X41325856Y-22414609D01*
X41358744Y-22430164D01*
X41371769Y-22438867D01*
X41371771Y-22438868D01*
X41430247Y-22450499D01*
X41430250Y-22450500D01*
X41430252Y-22450500D01*
X41545343Y-22450500D01*
X41551424Y-22450799D01*
X41564563Y-22452092D01*
X41600000Y-22455583D01*
X41635436Y-22452092D01*
X41648576Y-22450799D01*
X41654657Y-22450500D01*
X42375500Y-22450500D01*
X42442539Y-22470185D01*
X42488294Y-22522989D01*
X42499500Y-22574500D01*
X42499500Y-22765500D01*
X42479815Y-22832539D01*
X42427011Y-22878294D01*
X42375500Y-22889500D01*
X41654657Y-22889500D01*
X41648576Y-22889201D01*
X41600000Y-22884417D01*
X41551424Y-22889201D01*
X41545343Y-22889500D01*
X41430249Y-22889500D01*
X41371768Y-22901132D01*
X41371766Y-22901133D01*
X41358741Y-22909836D01*
X41325851Y-22925391D01*
X41196046Y-22964767D01*
X41108157Y-23011746D01*
X41013550Y-23062315D01*
X41013548Y-23062316D01*
X41013547Y-23062317D01*
X40853589Y-23193589D01*
X40722317Y-23353547D01*
X40624769Y-23536043D01*
X40624768Y-23536045D01*
X40624768Y-23536046D01*
X40617898Y-23558692D01*
X40564699Y-23734067D01*
X40544417Y-23940000D01*
X40564699Y-24145932D01*
X40564700Y-24145934D01*
X40624768Y-24343954D01*
X40722315Y-24526450D01*
X40722316Y-24526451D01*
X40722317Y-24526452D01*
X40853589Y-24686410D01*
X40918945Y-24740045D01*
X41013550Y-24817685D01*
X41196046Y-24915232D01*
X41325856Y-24954609D01*
X41358744Y-24970164D01*
X41371769Y-24978867D01*
X41371771Y-24978868D01*
X41430247Y-24990499D01*
X41430250Y-24990500D01*
X41430252Y-24990500D01*
X41545343Y-24990500D01*
X41551424Y-24990799D01*
X41564563Y-24992092D01*
X41600000Y-24995583D01*
X41635436Y-24992092D01*
X41648576Y-24990799D01*
X41654657Y-24990500D01*
X42375500Y-24990500D01*
X42442539Y-25010185D01*
X42488294Y-25062989D01*
X42499500Y-25114500D01*
X42499500Y-27845500D01*
X42479815Y-27912539D01*
X42427011Y-27958294D01*
X42375500Y-27969500D01*
X41654657Y-27969500D01*
X41648576Y-27969201D01*
X41600000Y-27964417D01*
X41551424Y-27969201D01*
X41545343Y-27969500D01*
X41430249Y-27969500D01*
X41371768Y-27981132D01*
X41371766Y-27981133D01*
X41358744Y-27989834D01*
X41325849Y-28005391D01*
X41322008Y-28006556D01*
X41252141Y-28007177D01*
X41198336Y-27975575D01*
X40917896Y-27695135D01*
X40913259Y-27689947D01*
X40888631Y-27659064D01*
X40839050Y-27625260D01*
X40826820Y-27616234D01*
X40790773Y-27589630D01*
X40783165Y-27585610D01*
X40775430Y-27581885D01*
X40775428Y-27581884D01*
X40718084Y-27564196D01*
X40696908Y-27556786D01*
X40661447Y-27544377D01*
X40653031Y-27542784D01*
X40644506Y-27541500D01*
X40644505Y-27541500D01*
X40584509Y-27541500D01*
X40524538Y-27539255D01*
X40515305Y-27540296D01*
X40515212Y-27539475D01*
X40499838Y-27541500D01*
X36646454Y-27541500D01*
X36611520Y-27536477D01*
X36471963Y-27495500D01*
X36471961Y-27495500D01*
X36328039Y-27495500D01*
X36328036Y-27495500D01*
X36188480Y-27536477D01*
X36153546Y-27541500D01*
X30725020Y-27541500D01*
X30718081Y-27541110D01*
X30701614Y-27539255D01*
X30678813Y-27536685D01*
X30619836Y-27547845D01*
X30560517Y-27556786D01*
X30552329Y-27559311D01*
X30544192Y-27562159D01*
X30491137Y-27590199D01*
X30437076Y-27616234D01*
X30429981Y-27621071D01*
X30423060Y-27626179D01*
X30401844Y-27647394D01*
X30380628Y-27668610D01*
X30354701Y-27692668D01*
X30336644Y-27709423D01*
X30330848Y-27716690D01*
X30330205Y-27716177D01*
X30320769Y-27728468D01*
X29999136Y-28050103D01*
X29993948Y-28054739D01*
X29963066Y-28079366D01*
X29963063Y-28079369D01*
X29929259Y-28128950D01*
X29893631Y-28177225D01*
X29889598Y-28184856D01*
X29885884Y-28192570D01*
X29868196Y-28249915D01*
X29848378Y-28306547D01*
X29846783Y-28314976D01*
X29845500Y-28323495D01*
X29845500Y-28383491D01*
X29843255Y-28443464D01*
X29844296Y-28452700D01*
X29843479Y-28452792D01*
X29845499Y-28468165D01*
X29845500Y-28963422D01*
X29834294Y-29014932D01*
X29814835Y-29057543D01*
X29814834Y-29057543D01*
X29794353Y-29200000D01*
X29794353Y-29200004D01*
X29795376Y-29207121D01*
X29785431Y-29276279D01*
X29760319Y-29312445D01*
X29609583Y-29463182D01*
X29548263Y-29496666D01*
X29521904Y-29499500D01*
X28304698Y-29499500D01*
X28237659Y-29479815D01*
X28191904Y-29427011D01*
X28181960Y-29357853D01*
X28184885Y-29344406D01*
X28189480Y-29312445D01*
X28191828Y-29296106D01*
X28220851Y-29232551D01*
X28226871Y-29226084D01*
X31725637Y-25727319D01*
X31786961Y-25693834D01*
X31813319Y-25691000D01*
X37346245Y-25691000D01*
X37413284Y-25710685D01*
X37444875Y-25730987D01*
X37489948Y-25759954D01*
X37628036Y-25800499D01*
X37628038Y-25800500D01*
X37628039Y-25800500D01*
X37771962Y-25800500D01*
X37771962Y-25800499D01*
X37879121Y-25769035D01*
X37910050Y-25759954D01*
X37910050Y-25759953D01*
X37910053Y-25759953D01*
X38031128Y-25682143D01*
X38125377Y-25573373D01*
X38185165Y-25442457D01*
X38205647Y-25300000D01*
X38185165Y-25157543D01*
X38125377Y-25026627D01*
X38031128Y-24917857D01*
X37910053Y-24840047D01*
X37910051Y-24840046D01*
X37910049Y-24840045D01*
X37910050Y-24840045D01*
X37771963Y-24799500D01*
X37771961Y-24799500D01*
X37628039Y-24799500D01*
X37628036Y-24799500D01*
X37489949Y-24840045D01*
X37489948Y-24840045D01*
X37428694Y-24879411D01*
X37413284Y-24889315D01*
X37346245Y-24909000D01*
X31538068Y-24909000D01*
X31517715Y-24915612D01*
X31498809Y-24920151D01*
X31477669Y-24923500D01*
X31477665Y-24923501D01*
X31458599Y-24933216D01*
X31440628Y-24940659D01*
X31435570Y-24942303D01*
X31420278Y-24947272D01*
X31420275Y-24947274D01*
X31402957Y-24959855D01*
X31386381Y-24970013D01*
X31367310Y-24979731D01*
X31279731Y-25067311D01*
X27678030Y-28669012D01*
X27625284Y-28700308D01*
X27489949Y-28740045D01*
X27368873Y-28817856D01*
X27274623Y-28926626D01*
X27274622Y-28926628D01*
X27214834Y-29057543D01*
X27194353Y-29200000D01*
X27216097Y-29351235D01*
X27214279Y-29351496D01*
X27214278Y-29410438D01*
X27176502Y-29469215D01*
X27112945Y-29498238D01*
X27095302Y-29499500D01*
X26278096Y-29499500D01*
X26211057Y-29479815D01*
X26190415Y-29463181D01*
X25539680Y-28812446D01*
X25506195Y-28751123D01*
X25504624Y-28707114D01*
X25505647Y-28700000D01*
X25485165Y-28557543D01*
X25425377Y-28426627D01*
X25425374Y-28426623D01*
X25421283Y-28421901D01*
X25392261Y-28358344D01*
X25391000Y-28340703D01*
X25391000Y-27495500D01*
X25391000Y-25969226D01*
X25391000Y-25969225D01*
X25391000Y-25938072D01*
X25384385Y-25917714D01*
X25379847Y-25898808D01*
X25376499Y-25877668D01*
X25366781Y-25858596D01*
X25359339Y-25840628D01*
X25352727Y-25820277D01*
X25340148Y-25802964D01*
X25329979Y-25786369D01*
X25320269Y-25767311D01*
X25232689Y-25679731D01*
X25232688Y-25679730D01*
X25230356Y-25677398D01*
X25230345Y-25677388D01*
X24726885Y-25173928D01*
X24693400Y-25112605D01*
X24691828Y-25103891D01*
X24686569Y-25067313D01*
X24685165Y-25057543D01*
X24671046Y-25026628D01*
X24658402Y-24998941D01*
X24625377Y-24926627D01*
X24531128Y-24817857D01*
X24410053Y-24740047D01*
X24410051Y-24740046D01*
X24410049Y-24740045D01*
X24410050Y-24740045D01*
X24271963Y-24699500D01*
X24271961Y-24699500D01*
X24128039Y-24699500D01*
X24128036Y-24699500D01*
X23989949Y-24740045D01*
X23868873Y-24817856D01*
X23774623Y-24926626D01*
X23774622Y-24926628D01*
X23714834Y-25057543D01*
X23694353Y-25200000D01*
X23714834Y-25342456D01*
X23760504Y-25442457D01*
X23774623Y-25473373D01*
X23868872Y-25582143D01*
X23989947Y-25659953D01*
X23989950Y-25659954D01*
X23989949Y-25659954D01*
X24125283Y-25699691D01*
X24178030Y-25730987D01*
X24572681Y-26125638D01*
X24606166Y-26186961D01*
X24609000Y-26213319D01*
X24609000Y-28340703D01*
X24589315Y-28407742D01*
X24578717Y-28421901D01*
X24574625Y-28426623D01*
X24574622Y-28426628D01*
X24514834Y-28557543D01*
X24494353Y-28700000D01*
X24514834Y-28842456D01*
X24553275Y-28926628D01*
X24574623Y-28973373D01*
X24668872Y-29082143D01*
X24789947Y-29159953D01*
X24789950Y-29159954D01*
X24789949Y-29159954D01*
X24897107Y-29191417D01*
X24927027Y-29200203D01*
X24928036Y-29200499D01*
X24928038Y-29200500D01*
X25021904Y-29200500D01*
X25088943Y-29220185D01*
X25109585Y-29236819D01*
X25560585Y-29687819D01*
X25594070Y-29749142D01*
X25589086Y-29818834D01*
X25547214Y-29874767D01*
X25481750Y-29899184D01*
X25472904Y-29899500D01*
X21624500Y-29899500D01*
X21557461Y-29879815D01*
X21511706Y-29827011D01*
X21500500Y-29775500D01*
X21500500Y-25114500D01*
X21520185Y-25047461D01*
X21572989Y-25001706D01*
X21624500Y-24990500D01*
X22345343Y-24990500D01*
X22351424Y-24990799D01*
X22364563Y-24992092D01*
X22400000Y-24995583D01*
X22435436Y-24992092D01*
X22448576Y-24990799D01*
X22454657Y-24990500D01*
X22569750Y-24990500D01*
X22569751Y-24990499D01*
X22598989Y-24984683D01*
X22628227Y-24978868D01*
X22628227Y-24978867D01*
X22628231Y-24978867D01*
X22641253Y-24970165D01*
X22674141Y-24954609D01*
X22803954Y-24915232D01*
X22986450Y-24817685D01*
X23146410Y-24686410D01*
X23277685Y-24526450D01*
X23347120Y-24396546D01*
X23396082Y-24346702D01*
X23456478Y-24331000D01*
X32150545Y-24331000D01*
X32150546Y-24331000D01*
X32170894Y-24324388D01*
X32189805Y-24319847D01*
X32210950Y-24316499D01*
X32230014Y-24306784D01*
X32247989Y-24299339D01*
X32268341Y-24292727D01*
X32268343Y-24292725D01*
X32273113Y-24290295D01*
X32341781Y-24277394D01*
X32364343Y-24281797D01*
X32428039Y-24300500D01*
X32571962Y-24300500D01*
X32571962Y-24300499D01*
X32710053Y-24259953D01*
X32831128Y-24182143D01*
X32925377Y-24073373D01*
X32985165Y-23942457D01*
X33005647Y-23800000D01*
X32985165Y-23657543D01*
X32925377Y-23526627D01*
X32842689Y-23431199D01*
X32813666Y-23367647D01*
X32823610Y-23298489D01*
X32842687Y-23268802D01*
X32925377Y-23173373D01*
X32985165Y-23042457D01*
X33005647Y-22900000D01*
X33000963Y-22867425D01*
X33010906Y-22798272D01*
X33056660Y-22745467D01*
X33123699Y-22725781D01*
X33160247Y-22731289D01*
X33235495Y-22754500D01*
X35553546Y-22754500D01*
X35588480Y-22759523D01*
X35656036Y-22779359D01*
X35714815Y-22817133D01*
X35743840Y-22880689D01*
X35733897Y-22949847D01*
X35688142Y-23002651D01*
X35656037Y-23017313D01*
X35536908Y-23052291D01*
X35415833Y-23130102D01*
X35321583Y-23238872D01*
X35321582Y-23238874D01*
X35261794Y-23369789D01*
X35241313Y-23512246D01*
X35261794Y-23654702D01*
X35315989Y-23773371D01*
X35321583Y-23785619D01*
X35415832Y-23894389D01*
X35536907Y-23972199D01*
X35536910Y-23972200D01*
X35536909Y-23972200D01*
X35674996Y-24012745D01*
X35674998Y-24012746D01*
X35674999Y-24012746D01*
X35818922Y-24012746D01*
X35818922Y-24012745D01*
X35957013Y-23972199D01*
X36078088Y-23894389D01*
X36110359Y-23857145D01*
X36169137Y-23819369D01*
X36204074Y-23814346D01*
X37053497Y-23814346D01*
X37120536Y-23834031D01*
X37147208Y-23857141D01*
X37168872Y-23882143D01*
X37289947Y-23959953D01*
X37289950Y-23959954D01*
X37289949Y-23959954D01*
X37428036Y-24000499D01*
X37428038Y-24000500D01*
X37428039Y-24000500D01*
X37571962Y-24000500D01*
X37571962Y-24000499D01*
X37710053Y-23959953D01*
X37831128Y-23882143D01*
X37925377Y-23773373D01*
X37985165Y-23642457D01*
X38005647Y-23500000D01*
X37985165Y-23357543D01*
X37925377Y-23226627D01*
X37831128Y-23117857D01*
X37710053Y-23040047D01*
X37710051Y-23040046D01*
X37710049Y-23040045D01*
X37710050Y-23040045D01*
X37571963Y-22999500D01*
X37571961Y-22999500D01*
X37428039Y-22999500D01*
X37428036Y-22999500D01*
X37289949Y-23040045D01*
X37168869Y-23117858D01*
X37125989Y-23167347D01*
X37067212Y-23205123D01*
X37032275Y-23210146D01*
X36204074Y-23210146D01*
X36137035Y-23190461D01*
X36110360Y-23167347D01*
X36078090Y-23130104D01*
X35984046Y-23069666D01*
X35957013Y-23052293D01*
X35957012Y-23052292D01*
X35957011Y-23052292D01*
X35890921Y-23032886D01*
X35832144Y-22995111D01*
X35803119Y-22931555D01*
X35813063Y-22862397D01*
X35858818Y-22809593D01*
X35890914Y-22794934D01*
X36010053Y-22759953D01*
X36131128Y-22682143D01*
X36225377Y-22573373D01*
X36285165Y-22442457D01*
X36305647Y-22300000D01*
X36285165Y-22157543D01*
X36225377Y-22026627D01*
X36131128Y-21917857D01*
X36010053Y-21840047D01*
X36010051Y-21840046D01*
X36010049Y-21840045D01*
X36010050Y-21840045D01*
X35871963Y-21799500D01*
X35871961Y-21799500D01*
X35728039Y-21799500D01*
X35728036Y-21799500D01*
X35588480Y-21840477D01*
X35553546Y-21845500D01*
X33269930Y-21845500D01*
X33192981Y-21857099D01*
X33123757Y-21847626D01*
X33070643Y-21802231D01*
X33050503Y-21735327D01*
X33050500Y-21734484D01*
X33050500Y-20624500D01*
X33070185Y-20557461D01*
X33122989Y-20511706D01*
X33174500Y-20500500D01*
X40717052Y-20500500D01*
X40784091Y-20520185D01*
G37*
%TD.AperFunction*%
%TA.AperFunction,Conductor*%
G36*
X36188480Y-28455523D02*
G01*
X36328036Y-28496499D01*
X36328038Y-28496500D01*
X36328039Y-28496500D01*
X36471962Y-28496500D01*
X36471962Y-28496499D01*
X36521713Y-28481891D01*
X36611520Y-28455523D01*
X36646454Y-28450500D01*
X40336378Y-28450500D01*
X40403417Y-28470185D01*
X40424059Y-28486819D01*
X40555576Y-28618336D01*
X40589061Y-28679659D01*
X40586556Y-28742010D01*
X40564700Y-28814062D01*
X40564699Y-28814065D01*
X40544417Y-29019999D01*
X40564699Y-29225932D01*
X40594733Y-29324944D01*
X40624768Y-29423954D01*
X40722315Y-29606450D01*
X40722317Y-29606452D01*
X40796492Y-29696836D01*
X40823804Y-29761146D01*
X40812013Y-29830013D01*
X40764860Y-29881573D01*
X40700638Y-29899500D01*
X30555538Y-29899500D01*
X30488499Y-29879815D01*
X30442744Y-29827011D01*
X30432800Y-29757853D01*
X30461825Y-29694297D01*
X30504023Y-29662707D01*
X30510047Y-29659954D01*
X30510053Y-29659953D01*
X30631128Y-29582143D01*
X30725377Y-29473373D01*
X30785165Y-29342457D01*
X30805647Y-29200000D01*
X30785165Y-29057543D01*
X30765705Y-29014932D01*
X30754499Y-28963425D01*
X30754499Y-28631622D01*
X30774184Y-28564584D01*
X30790819Y-28543941D01*
X30847943Y-28486818D01*
X30909266Y-28453334D01*
X30935623Y-28450500D01*
X36153546Y-28450500D01*
X36188480Y-28455523D01*
G37*
%TD.AperFunction*%
%TD*%
M02*
