M48
; DRILL file {KiCad 7.0.7} date Fri Sep  8 15:52:27 2023
; FORMAT={-:-/ absolute / inch / decimal}
; #@! TF.CreationDate,2023-09-08T15:52:27+02:00
; #@! TF.GenerationSoftware,Kicad,Pcbnew,7.0.7
; #@! TF.FileFunction,Plated,1,2,PTH
FMAT,2
INCH
; #@! TA.AperFunction,Plated,PTH,ViaDrill
T1C0.0118
; #@! TA.AperFunction,Plated,PTH,ComponentDrill
T2C0.0394
%
G90
G05
T1
X0.8622Y-1.1496
X0.9291Y-1.063
X0.9528Y-0.9921
X0.9843Y-1.1299
X0.9843Y-1.1693
X0.9921Y-0.8425
X1.0551Y-0.9843
X1.0551Y-1.0118
X1.0551Y-1.0394
X1.0866Y-0.9843
X1.0866Y-1.0118
X1.0866Y-1.0394
X1.0906Y-1.1496
X1.1181Y-0.9843
X1.1181Y-1.0118
X1.1181Y-1.0394
X1.1852Y-0.8398
X1.1929Y-1.1496
X1.2756Y-1.0709
X1.2795Y-0.9016
X1.2795Y-0.937
X1.4074Y-0.9257
X1.4094Y-0.878
X1.4331Y-1.1022
X1.4764Y-0.9252
X1.4843Y-0.9961
T2
X0.8819Y-0.8425
X0.8819Y-0.9425
X1.2598Y-0.8307
X1.2598Y-1.1535
X1.6378Y-0.8425
X1.6378Y-0.9425
X1.6378Y-1.0425
X1.6378Y-1.1425
T0
M30
