%TF.GenerationSoftware,KiCad,Pcbnew,7.0.7*%
%TF.CreationDate,2023-09-08T15:52:27+02:00*%
%TF.ProjectId,Minimal-APRS-TX,4d696e69-6d61-46c2-9d41-5052532d5458,rev?*%
%TF.SameCoordinates,Original*%
%TF.FileFunction,Legend,Top*%
%TF.FilePolarity,Positive*%
%FSLAX46Y46*%
G04 Gerber Fmt 4.6, Leading zero omitted, Abs format (unit mm)*
G04 Created by KiCad (PCBNEW 7.0.7) date 2023-09-08 15:52:27*
%MOMM*%
%LPD*%
G01*
G04 APERTURE LIST*
G04 Aperture macros list*
%AMRoundRect*
0 Rectangle with rounded corners*
0 $1 Rounding radius*
0 $2 $3 $4 $5 $6 $7 $8 $9 X,Y pos of 4 corners*
0 Add a 4 corners polygon primitive as box body*
4,1,4,$2,$3,$4,$5,$6,$7,$8,$9,$2,$3,0*
0 Add four circle primitives for the rounded corners*
1,1,$1+$1,$2,$3*
1,1,$1+$1,$4,$5*
1,1,$1+$1,$6,$7*
1,1,$1+$1,$8,$9*
0 Add four rect primitives between the rounded corners*
20,1,$1+$1,$2,$3,$4,$5,0*
20,1,$1+$1,$4,$5,$6,$7,0*
20,1,$1+$1,$6,$7,$8,$9,0*
20,1,$1+$1,$8,$9,$2,$3,0*%
G04 Aperture macros list end*
%ADD10C,0.323607*%
%ADD11C,0.150000*%
%ADD12C,0.120000*%
%ADD13RoundRect,0.100000X-0.130000X-0.100000X0.130000X-0.100000X0.130000X0.100000X-0.130000X0.100000X0*%
%ADD14R,1.500000X1.700000*%
%ADD15C,1.700000*%
%ADD16O,1.700000X1.700000*%
%ADD17R,1.700000X1.700000*%
%ADD18RoundRect,0.150000X0.825000X0.150000X-0.825000X0.150000X-0.825000X-0.150000X0.825000X-0.150000X0*%
%ADD19R,1.200000X1.400000*%
%ADD20RoundRect,0.075000X-0.312500X-0.075000X0.312500X-0.075000X0.312500X0.075000X-0.312500X0.075000X0*%
%ADD21RoundRect,0.075000X-0.075000X-0.312500X0.075000X-0.312500X0.075000X0.312500X-0.075000X0.312500X0*%
%ADD22R,4.800000X4.800000*%
G04 APERTURE END LIST*
D10*
X25461803Y-22200000D02*
G75*
G03*
X25461803Y-22200000I-161803J0D01*
G01*
X37861803Y-28700000D02*
G75*
G03*
X37861803Y-28700000I-161803J0D01*
G01*
D11*
X26412969Y-21269819D02*
X25936779Y-21269819D01*
X25936779Y-21269819D02*
X25936779Y-20269819D01*
X30808207Y-21174580D02*
X30760588Y-21222200D01*
X30760588Y-21222200D02*
X30617731Y-21269819D01*
X30617731Y-21269819D02*
X30522493Y-21269819D01*
X30522493Y-21269819D02*
X30379636Y-21222200D01*
X30379636Y-21222200D02*
X30284398Y-21126961D01*
X30284398Y-21126961D02*
X30236779Y-21031723D01*
X30236779Y-21031723D02*
X30189160Y-20841247D01*
X30189160Y-20841247D02*
X30189160Y-20698390D01*
X30189160Y-20698390D02*
X30236779Y-20507914D01*
X30236779Y-20507914D02*
X30284398Y-20412676D01*
X30284398Y-20412676D02*
X30379636Y-20317438D01*
X30379636Y-20317438D02*
X30522493Y-20269819D01*
X30522493Y-20269819D02*
X30617731Y-20269819D01*
X30617731Y-20269819D02*
X30760588Y-20317438D01*
X30760588Y-20317438D02*
X30808207Y-20365057D01*
D12*
%TO.C,U1*%
X36825000Y-29675000D02*
X40275000Y-29675000D01*
X36825000Y-29675000D02*
X34875000Y-29675000D01*
X36825000Y-20805000D02*
X38775000Y-20805000D01*
X36825000Y-20805000D02*
X34875000Y-20805000D01*
%TO.C,X1*%
X24400000Y-26100000D02*
X21100000Y-26100000D01*
X21100000Y-26100000D02*
X21100000Y-30100000D01*
%TO.C,U2*%
X25190000Y-28310000D02*
X25190000Y-27560000D01*
X25940000Y-22090000D02*
X25190000Y-22090000D01*
X25940000Y-28310000D02*
X25190000Y-28310000D01*
X30660000Y-22090000D02*
X31410000Y-22090000D01*
X30660000Y-28310000D02*
X31410000Y-28310000D01*
X31410000Y-22090000D02*
X31410000Y-22840000D01*
X31410000Y-28310000D02*
X31410000Y-27560000D01*
%TD*%
%LPC*%
D13*
%TO.C,L1*%
X27080000Y-21000000D03*
X27720000Y-21000000D03*
%TD*%
D14*
%TO.C,H2*%
X21800000Y-21400000D03*
D15*
X22400000Y-21400000D03*
D14*
X21800000Y-23940000D03*
D16*
X22400000Y-23940000D03*
%TD*%
D14*
%TO.C,H1*%
X42200000Y-29020000D03*
D15*
X41600000Y-29020000D03*
D14*
X42200000Y-26480000D03*
D16*
X41600000Y-26480000D03*
D14*
X42200000Y-23940000D03*
D15*
X41600000Y-23940000D03*
D14*
X42200000Y-21400000D03*
D16*
X41600000Y-21400000D03*
%TD*%
D17*
%TO.C,H4*%
X32000000Y-29300000D03*
%TD*%
D18*
%TO.C,U1*%
X39300000Y-29050000D03*
X39300000Y-27780000D03*
X39300000Y-26510000D03*
X39300000Y-25240000D03*
X39300000Y-23970000D03*
X39300000Y-22700000D03*
X39300000Y-21430000D03*
X34350000Y-21430000D03*
X34350000Y-22700000D03*
X34350000Y-23970000D03*
X34350000Y-25240000D03*
X34350000Y-26510000D03*
X34350000Y-27780000D03*
X34350000Y-29050000D03*
%TD*%
D17*
%TO.C,H3*%
X32000000Y-21100000D03*
%TD*%
D19*
%TO.C,X1*%
X21900000Y-27000000D03*
X21900000Y-29200000D03*
X23600000Y-29200000D03*
X23600000Y-27000000D03*
%TD*%
D20*
%TO.C,U2*%
X25312500Y-23250000D03*
X25312500Y-23900000D03*
X25312500Y-24550000D03*
X25312500Y-25200000D03*
X25312500Y-25850000D03*
X25312500Y-26500000D03*
X25312500Y-27150000D03*
D21*
X26350000Y-28187500D03*
X27000000Y-28187500D03*
X27650000Y-28187500D03*
X28300000Y-28187500D03*
X28950000Y-28187500D03*
X29600000Y-28187500D03*
X30250000Y-28187500D03*
D20*
X31287500Y-27150000D03*
X31287500Y-26500000D03*
X31287500Y-25850000D03*
X31287500Y-25200000D03*
X31287500Y-24550000D03*
X31287500Y-23900000D03*
X31287500Y-23250000D03*
D21*
X30250000Y-22212500D03*
X29600000Y-22212500D03*
X28950000Y-22212500D03*
X28300000Y-22212500D03*
X27650000Y-22212500D03*
X27000000Y-22212500D03*
X26350000Y-22212500D03*
D22*
X28300000Y-25200000D03*
%TD*%
D13*
%TO.C,C1*%
X28735000Y-21000000D03*
X29375000Y-21000000D03*
%TD*%
%LPD*%
M02*
