%TF.GenerationSoftware,KiCad,Pcbnew,7.0.7*%
%TF.CreationDate,2023-09-08T15:52:27+02:00*%
%TF.ProjectId,Minimal-APRS-TX,4d696e69-6d61-46c2-9d41-5052532d5458,rev?*%
%TF.SameCoordinates,Original*%
%TF.FileFunction,Legend,Bot*%
%TF.FilePolarity,Positive*%
%FSLAX46Y46*%
G04 Gerber Fmt 4.6, Leading zero omitted, Abs format (unit mm)*
G04 Created by KiCad (PCBNEW 7.0.7) date 2023-09-08 15:52:27*
%MOMM*%
%LPD*%
G01*
G04 APERTURE LIST*
%ADD10R,1.500000X1.700000*%
%ADD11C,1.700000*%
%ADD12O,1.700000X1.700000*%
%ADD13R,1.700000X1.700000*%
G04 APERTURE END LIST*
%TO.C,kibuzzard-64F1B32F*%
G36*
X39975219Y-23665672D02*
G01*
X39975219Y-23927134D01*
X39790910Y-23927134D01*
X39703042Y-23896416D01*
X39679468Y-23785687D01*
X39703756Y-23697819D01*
X39793768Y-23668530D01*
X39863062Y-23665315D01*
X39913783Y-23664244D01*
X39975219Y-23665672D01*
G37*
G36*
X38282150Y-24332899D02*
G01*
X38169279Y-24337185D01*
X38083197Y-24325041D01*
X38019260Y-24300038D01*
X37974076Y-24258782D01*
X37944251Y-24197882D01*
X37927642Y-24113050D01*
X37922105Y-24000000D01*
X37927463Y-23893022D01*
X37943536Y-23812119D01*
X37972290Y-23753183D01*
X38015688Y-23712107D01*
X38076946Y-23685496D01*
X38159278Y-23669959D01*
X38226429Y-23664601D01*
X38282150Y-23662815D01*
X38282150Y-24332899D01*
G37*
G36*
X40454326Y-24792004D02*
G01*
X40156670Y-24792004D01*
X39443724Y-24792004D01*
X38580759Y-24792004D01*
X38212141Y-24792004D01*
X37737796Y-24792004D01*
X37737677Y-24792004D01*
X37660047Y-24788190D01*
X37583165Y-24776786D01*
X37507771Y-24757900D01*
X37434591Y-24731716D01*
X37364329Y-24698485D01*
X37297664Y-24658527D01*
X37235235Y-24612227D01*
X37177646Y-24560031D01*
X37125450Y-24502442D01*
X37079150Y-24440014D01*
X37039192Y-24373348D01*
X37005961Y-24303087D01*
X36979777Y-24229907D01*
X36960892Y-24154512D01*
X36949487Y-24077630D01*
X36946165Y-24010001D01*
X37737796Y-24010001D01*
X37742559Y-24126286D01*
X37756846Y-24223679D01*
X37780659Y-24302181D01*
X37838166Y-24390942D01*
X37924963Y-24450056D01*
X38001956Y-24474663D01*
X38097683Y-24489426D01*
X38212141Y-24494348D01*
X38287230Y-24493077D01*
X38371526Y-24489267D01*
X38465030Y-24482918D01*
X38580759Y-24482918D01*
X38783641Y-24482918D01*
X38969379Y-24140018D01*
X38973665Y-24140018D01*
X39159403Y-24482918D01*
X39362285Y-24482918D01*
X39443724Y-24482918D01*
X39639463Y-24482918D01*
X39706614Y-24192881D01*
X39758049Y-24107871D01*
X39808055Y-24091261D01*
X39883779Y-24085725D01*
X39975219Y-24085725D01*
X39975219Y-24482918D01*
X40156670Y-24482918D01*
X40156670Y-23512796D01*
X39986649Y-23507081D01*
X39902353Y-23505652D01*
X39805436Y-23508669D01*
X39724235Y-23517717D01*
X39658751Y-23532799D01*
X39584813Y-23568517D01*
X39535878Y-23621381D01*
X39508553Y-23694962D01*
X39499445Y-23792831D01*
X39514447Y-23907846D01*
X39565168Y-23972139D01*
X39666609Y-24004286D01*
X39666609Y-24017145D01*
X39577312Y-24061436D01*
X39549630Y-24108228D01*
X39525163Y-24180022D01*
X39443724Y-24482918D01*
X39362285Y-24482918D01*
X39070820Y-23975711D01*
X39347998Y-23508510D01*
X39147973Y-23508510D01*
X38973665Y-23828550D01*
X38969379Y-23828550D01*
X38797929Y-23508510D01*
X38595046Y-23508510D01*
X38872224Y-23975711D01*
X38580759Y-24482918D01*
X38465030Y-24482918D01*
X38465030Y-23511367D01*
X38377876Y-23507081D01*
X38299295Y-23505652D01*
X38222143Y-23507438D01*
X38153563Y-23512796D01*
X38053153Y-23527084D01*
X37969095Y-23548991D01*
X37901388Y-23578519D01*
X37825129Y-23641205D01*
X37774944Y-23729252D01*
X37754306Y-23805214D01*
X37741924Y-23898797D01*
X37737796Y-24010001D01*
X36946165Y-24010001D01*
X36945674Y-24000000D01*
X36949487Y-23922370D01*
X36960892Y-23845488D01*
X36979777Y-23770093D01*
X37005961Y-23696913D01*
X37039192Y-23626652D01*
X37079150Y-23559986D01*
X37125450Y-23497558D01*
X37177646Y-23439969D01*
X37235235Y-23387773D01*
X37297664Y-23341473D01*
X37364329Y-23301515D01*
X37434591Y-23268284D01*
X37507771Y-23242100D01*
X37583165Y-23223214D01*
X37660047Y-23211810D01*
X37737677Y-23207996D01*
X37737796Y-23207996D01*
X40156670Y-23207996D01*
X40454326Y-23207996D01*
X40454326Y-24792004D01*
G37*
%TO.C,kibuzzard-64F1B34A*%
G36*
X25227005Y-21307131D02*
G01*
X25026980Y-21307131D01*
X24943398Y-21280699D01*
X24921252Y-21191402D01*
X24950542Y-21101391D01*
X24992869Y-21080317D01*
X25061270Y-21068530D01*
X25179856Y-21064244D01*
X25227005Y-21064244D01*
X25227005Y-21307131D01*
G37*
G36*
X24356896Y-21698609D02*
G01*
X24314034Y-21737899D01*
X24218307Y-21748615D01*
X24124010Y-21737899D01*
X24082576Y-21704324D01*
X24059716Y-21627171D01*
X24044714Y-21524301D01*
X24039714Y-21395714D01*
X24042571Y-21301416D01*
X24356896Y-21698609D01*
G37*
G36*
X26068539Y-21374282D02*
G01*
X25978527Y-21374282D01*
X25899946Y-21370711D01*
X25841367Y-21359995D01*
X25772787Y-21312846D01*
X25752785Y-21218549D01*
X25775645Y-21128537D01*
X25852083Y-21083532D01*
X25916913Y-21073352D01*
X26004245Y-21069959D01*
X26068539Y-21069959D01*
X26068539Y-21374282D01*
G37*
G36*
X25227005Y-21738614D02*
G01*
X25162354Y-21740757D01*
X25102704Y-21741471D01*
X25025730Y-21738435D01*
X24969116Y-21729327D01*
X24902679Y-21687893D01*
X24882676Y-21604311D01*
X24899107Y-21518586D01*
X24953399Y-21476438D01*
X25062699Y-21464294D01*
X25227005Y-21464294D01*
X25227005Y-21738614D01*
G37*
G36*
X24309747Y-21060672D02*
G01*
X24351181Y-21093533D01*
X24375470Y-21169971D01*
X24389757Y-21267841D01*
X24394044Y-21326241D01*
X24395472Y-21400000D01*
X24394044Y-21462151D01*
X24389757Y-21528587D01*
X24069717Y-21124251D01*
X24114723Y-21066387D01*
X24219736Y-21051385D01*
X24309747Y-21060672D01*
G37*
G36*
X27222578Y-20606122D02*
G01*
X27300015Y-20617609D01*
X27375953Y-20636631D01*
X27449661Y-20663004D01*
X27520430Y-20696475D01*
X27587576Y-20736721D01*
X27650455Y-20783355D01*
X27708460Y-20835928D01*
X27761032Y-20893933D01*
X27807666Y-20956811D01*
X27847913Y-21023958D01*
X27881384Y-21094726D01*
X27907757Y-21168434D01*
X27926778Y-21244373D01*
X27938265Y-21321810D01*
X27942106Y-21400000D01*
X27938265Y-21478190D01*
X27926778Y-21555627D01*
X27907757Y-21631566D01*
X27881384Y-21705274D01*
X27847913Y-21776042D01*
X27807666Y-21843189D01*
X27761032Y-21906067D01*
X27708460Y-21964072D01*
X27650455Y-22016645D01*
X27587576Y-22063279D01*
X27520430Y-22103525D01*
X27449661Y-22136996D01*
X27375953Y-22163369D01*
X27300015Y-22182391D01*
X27222578Y-22193878D01*
X27144387Y-22197719D01*
X26251419Y-22197719D01*
X26068539Y-22197719D01*
X25126992Y-22197719D01*
X24219736Y-22197719D01*
X23861120Y-22197719D01*
X23563464Y-22197719D01*
X23563464Y-21408572D01*
X23861120Y-21408572D01*
X23862727Y-21485011D01*
X23867549Y-21551447D01*
X23876300Y-21613241D01*
X23889695Y-21675749D01*
X23916841Y-21760402D01*
X23949702Y-21820052D01*
X23991493Y-21859522D01*
X24045429Y-21883632D01*
X24119009Y-21895955D01*
X24219736Y-21900063D01*
X24319392Y-21895955D01*
X24392615Y-21883632D01*
X24446372Y-21859343D01*
X24487627Y-21819338D01*
X24519952Y-21758795D01*
X24546920Y-21672891D01*
X24557179Y-21617170D01*
X24699796Y-21617170D01*
X24709440Y-21715754D01*
X24738372Y-21788620D01*
X24789986Y-21839876D01*
X24867674Y-21873631D01*
X24936810Y-21887521D01*
X25023249Y-21895856D01*
X25126992Y-21898634D01*
X25213987Y-21897046D01*
X25307332Y-21892284D01*
X25407027Y-21884346D01*
X25407027Y-21224264D01*
X25571334Y-21224264D01*
X25580085Y-21331777D01*
X25606338Y-21411430D01*
X25653665Y-21467687D01*
X25725639Y-21505013D01*
X25789615Y-21520491D01*
X25869149Y-21529778D01*
X25964240Y-21532874D01*
X26068539Y-21532874D01*
X26068539Y-21887204D01*
X26251419Y-21887204D01*
X26251419Y-20915654D01*
X26028534Y-20911367D01*
X25917647Y-20914463D01*
X25825016Y-20923750D01*
X25750642Y-20939228D01*
X25667060Y-20976911D01*
X25612053Y-21034240D01*
X25581514Y-21115322D01*
X25571334Y-21224264D01*
X25407027Y-21224264D01*
X25407027Y-20912796D01*
X25171747Y-20908644D01*
X25071430Y-20911209D01*
X24983324Y-20919305D01*
X24912680Y-20932799D01*
X24833206Y-20965481D01*
X24780521Y-21014952D01*
X24751053Y-21084782D01*
X24741230Y-21178544D01*
X24748195Y-21261054D01*
X24769091Y-21317132D01*
X24808203Y-21353208D01*
X24869817Y-21375711D01*
X24869817Y-21384284D01*
X24766233Y-21421431D01*
X24714798Y-21492869D01*
X24703547Y-21546804D01*
X24699796Y-21617170D01*
X24557179Y-21617170D01*
X24562001Y-21590976D01*
X24571050Y-21499536D01*
X24574066Y-21398571D01*
X24570732Y-21294907D01*
X24560731Y-21202991D01*
X24544062Y-21122822D01*
X24517452Y-21040491D01*
X24486198Y-20982091D01*
X24445836Y-20942800D01*
X24391901Y-20917797D01*
X24317784Y-20904402D01*
X24216879Y-20899937D01*
X24116152Y-20904402D01*
X24042571Y-20917797D01*
X23989172Y-20942621D01*
X23948988Y-20981376D01*
X23917734Y-21039241D01*
X23891124Y-21121394D01*
X23874455Y-21204102D01*
X23864454Y-21299829D01*
X23861120Y-21408572D01*
X23563464Y-21408572D01*
X23563464Y-20602281D01*
X23861120Y-20602281D01*
X26251419Y-20602281D01*
X27144387Y-20602281D01*
X27222578Y-20606122D01*
G37*
%TO.C,kibuzzard-64F18FB8*%
G36*
X25557927Y-27487141D02*
G01*
X25409337Y-27487141D01*
X25482680Y-27214726D01*
X25484585Y-27214726D01*
X25557927Y-27487141D01*
G37*
G36*
X26135143Y-27189485D02*
G01*
X26168004Y-27226632D01*
X26174790Y-27260803D01*
X26177053Y-27309024D01*
X26168004Y-27386652D01*
X26135619Y-27421419D01*
X26063705Y-27430944D01*
X25987505Y-27420942D01*
X25953691Y-27383319D01*
X25946905Y-27348314D01*
X25944643Y-27298546D01*
X25954168Y-27223299D01*
X25987981Y-27189009D01*
X26061800Y-27179484D01*
X26135143Y-27189485D01*
G37*
G36*
X28976450Y-27338075D02*
G01*
X29010264Y-27388081D01*
X29017765Y-27430706D01*
X29020265Y-27488094D01*
X29017765Y-27545601D01*
X29010264Y-27588582D01*
X28976450Y-27639065D01*
X28908823Y-27653829D01*
X28834051Y-27639065D01*
X28796904Y-27589059D01*
X28788688Y-27546196D01*
X28785950Y-27488094D01*
X28788688Y-27430706D01*
X28796904Y-27388081D01*
X28834051Y-27338075D01*
X28908823Y-27323311D01*
X28976450Y-27338075D01*
G37*
G36*
X27310528Y-27644304D02*
G01*
X27235280Y-27647161D01*
X27177892Y-27639065D01*
X27135268Y-27622396D01*
X27105145Y-27594893D01*
X27085261Y-27554292D01*
X27074188Y-27497738D01*
X27070498Y-27422371D01*
X27074069Y-27351053D01*
X27084785Y-27297117D01*
X27103954Y-27257827D01*
X27132886Y-27230442D01*
X27173725Y-27212702D01*
X27228613Y-27202344D01*
X27273380Y-27198772D01*
X27310528Y-27197581D01*
X27310528Y-27644304D01*
G37*
G36*
X29720575Y-28147541D02*
G01*
X29332050Y-28147541D01*
X29133613Y-28147541D01*
X28876438Y-28147541D01*
X28358278Y-28147541D01*
X27263855Y-28147541D01*
X26384698Y-28147541D01*
X26070373Y-28147541D01*
X25213122Y-28147541D01*
X24910227Y-28147541D01*
X24666387Y-28147541D01*
X24467950Y-28147541D01*
X24294976Y-27570961D01*
X24666387Y-27570961D01*
X24671864Y-27634302D01*
X24688295Y-27681451D01*
X24717703Y-27714789D01*
X24762114Y-27736696D01*
X24825098Y-27748841D01*
X24910227Y-27752889D01*
X24997977Y-27748364D01*
X25017400Y-27744316D01*
X25213122Y-27744316D01*
X25334090Y-27744316D01*
X25380762Y-27589059D01*
X25586502Y-27589059D01*
X25633175Y-27744316D01*
X25754142Y-27744316D01*
X25625048Y-27311881D01*
X25834153Y-27311881D01*
X25838796Y-27387248D01*
X25852726Y-27451422D01*
X25878920Y-27512144D01*
X25920354Y-27577152D01*
X25958824Y-27626630D01*
X26008830Y-27685526D01*
X26070373Y-27753841D01*
X26217058Y-27753841D01*
X26206405Y-27743364D01*
X26384698Y-27743364D01*
X26834278Y-27743364D01*
X26834278Y-27429039D01*
X26947625Y-27429039D01*
X26950800Y-27506562D01*
X26960325Y-27571490D01*
X26976200Y-27623825D01*
X27014538Y-27682999D01*
X27072403Y-27722409D01*
X27123732Y-27738813D01*
X27187549Y-27748655D01*
X27263855Y-27751936D01*
X27313914Y-27751090D01*
X27370112Y-27748550D01*
X27432448Y-27744316D01*
X27432448Y-27247111D01*
X28091578Y-27247111D01*
X28358278Y-27949104D01*
X28478293Y-27949104D01*
X28402093Y-27741459D01*
X28498264Y-27488094D01*
X28668793Y-27488094D01*
X28670856Y-27552599D01*
X28677048Y-27606415D01*
X28687366Y-27649543D01*
X28712369Y-27698001D01*
X28750231Y-27730029D01*
X28803928Y-27747888D01*
X28876438Y-27753841D01*
X28951209Y-27740982D01*
X29010740Y-27691929D01*
X29018360Y-27691929D01*
X29018360Y-27744316D01*
X29133613Y-27744316D01*
X29132660Y-27050896D01*
X29017408Y-27050896D01*
X29018360Y-27285211D01*
X29010740Y-27285211D01*
X28956448Y-27236634D01*
X28922158Y-27226632D01*
X28876438Y-27223299D01*
X28803928Y-27229252D01*
X28750231Y-27247111D01*
X28712369Y-27279139D01*
X28687366Y-27327597D01*
X28677048Y-27370619D01*
X28670856Y-27424117D01*
X28668793Y-27488094D01*
X28498264Y-27488094D01*
X28589735Y-27247111D01*
X28471625Y-27247111D01*
X28343038Y-27612871D01*
X28338275Y-27612871D01*
X28211593Y-27247111D01*
X28091578Y-27247111D01*
X27432448Y-27247111D01*
X27432448Y-27096616D01*
X27374345Y-27093759D01*
X27321958Y-27092806D01*
X27270523Y-27093997D01*
X27224803Y-27097569D01*
X27157863Y-27107094D01*
X27101824Y-27121699D01*
X27056686Y-27141384D01*
X27005847Y-27183175D01*
X26972390Y-27241872D01*
X26958632Y-27292514D01*
X26950377Y-27354902D01*
X26947625Y-27429039D01*
X26834278Y-27429039D01*
X26834278Y-27096616D01*
X26712358Y-27096616D01*
X26712358Y-27636684D01*
X26384698Y-27636684D01*
X26384698Y-27743364D01*
X26206405Y-27743364D01*
X26162500Y-27700184D01*
X26118209Y-27654781D01*
X26084184Y-27617634D01*
X26038583Y-27561436D01*
X25988458Y-27491904D01*
X25996078Y-27491904D01*
X26031796Y-27516669D01*
X26074183Y-27522384D01*
X26153835Y-27518217D01*
X26209914Y-27505715D01*
X26247299Y-27482022D01*
X26270874Y-27444279D01*
X26283375Y-27387843D01*
X26287543Y-27308071D01*
X26283137Y-27225799D01*
X26269921Y-27167577D01*
X26244918Y-27128644D01*
X26205151Y-27104236D01*
X26145739Y-27091377D01*
X26061800Y-27087091D01*
X25976432Y-27091497D01*
X25916544Y-27104712D01*
X25876777Y-27129597D01*
X25851774Y-27169006D01*
X25838558Y-27228061D01*
X25834153Y-27311881D01*
X25625048Y-27311881D01*
X25560785Y-27096616D01*
X25406480Y-27096616D01*
X25213122Y-27744316D01*
X25017400Y-27744316D01*
X25063104Y-27734791D01*
X25108943Y-27710264D01*
X25138827Y-27672879D01*
X25154544Y-27620015D01*
X25157877Y-27549054D01*
X25038815Y-27549054D01*
X25023575Y-27610490D01*
X24983094Y-27640494D01*
X24948923Y-27646923D01*
X24902607Y-27649066D01*
X24831646Y-27642399D01*
X24795927Y-27619063D01*
X24785450Y-27571914D01*
X24800690Y-27523336D01*
X24850696Y-27486665D01*
X24892725Y-27469401D01*
X24949280Y-27450946D01*
X25020122Y-27427015D01*
X25072629Y-27402845D01*
X25109657Y-27376294D01*
X25134065Y-27345219D01*
X25147638Y-27307357D01*
X25152162Y-27260446D01*
X25146805Y-27200439D01*
X25130731Y-27155671D01*
X25101918Y-27123882D01*
X25058341Y-27102807D01*
X24996786Y-27091020D01*
X24914037Y-27087091D01*
X24832956Y-27091139D01*
X24772591Y-27103284D01*
X24729610Y-27125191D01*
X24700677Y-27158529D01*
X24684485Y-27205916D01*
X24679722Y-27269971D01*
X24800690Y-27269971D01*
X24814501Y-27221870D01*
X24849744Y-27198057D01*
X24917847Y-27190914D01*
X24987856Y-27197581D01*
X25022622Y-27219489D01*
X25033100Y-27264256D01*
X24996429Y-27313310D01*
X24945351Y-27336765D01*
X24865460Y-27364269D01*
X24796285Y-27389272D01*
X24744969Y-27414751D01*
X24708655Y-27443207D01*
X24684485Y-27477140D01*
X24670912Y-27518931D01*
X24666387Y-27570961D01*
X24294976Y-27570961D01*
X24079425Y-26852459D01*
X24467950Y-26852459D01*
X24666387Y-26852459D01*
X29133613Y-26852459D01*
X29332050Y-26852459D01*
X29720575Y-28147541D01*
G37*
%TO.C,kibuzzard-64F1B334*%
G36*
X38265362Y-26836471D02*
G01*
X38152491Y-26840757D01*
X38066409Y-26828612D01*
X38002472Y-26803609D01*
X37957288Y-26762354D01*
X37927463Y-26701454D01*
X37910854Y-26616622D01*
X37905317Y-26503572D01*
X37910675Y-26396594D01*
X37926749Y-26315691D01*
X37955502Y-26256755D01*
X37998900Y-26215679D01*
X38060158Y-26189068D01*
X38142490Y-26173531D01*
X38209641Y-26168173D01*
X38265362Y-26166387D01*
X38265362Y-26836471D01*
G37*
G36*
X40476115Y-27297004D02*
G01*
X40178459Y-27297004D01*
X39775551Y-27297004D01*
X38588260Y-27297004D01*
X38195354Y-27297004D01*
X37721009Y-27297004D01*
X37720890Y-27297004D01*
X37642769Y-27293167D01*
X37565402Y-27281690D01*
X37489531Y-27262686D01*
X37415889Y-27236336D01*
X37345184Y-27202895D01*
X37278098Y-27162685D01*
X37215275Y-27116093D01*
X37157322Y-27063567D01*
X37104797Y-27005614D01*
X37058205Y-26942792D01*
X37017994Y-26875705D01*
X36984554Y-26805000D01*
X36958204Y-26731358D01*
X36939199Y-26655488D01*
X36927723Y-26578120D01*
X36924552Y-26513573D01*
X37721009Y-26513573D01*
X37725771Y-26629857D01*
X37740059Y-26727251D01*
X37763871Y-26805752D01*
X37821378Y-26894514D01*
X37908175Y-26953628D01*
X37985169Y-26978234D01*
X38080895Y-26992998D01*
X38195354Y-26997919D01*
X38270442Y-26996649D01*
X38354739Y-26992839D01*
X38448242Y-26986489D01*
X38448242Y-26014939D01*
X38588260Y-26014939D01*
X38588260Y-26986489D01*
X38811145Y-26986489D01*
X39159760Y-26224966D01*
X39164046Y-26224966D01*
X39144044Y-26427848D01*
X39144044Y-26986489D01*
X39319780Y-26986489D01*
X39319780Y-26283544D01*
X39445510Y-26283544D01*
X39622675Y-26283544D01*
X39644106Y-26207106D01*
X39697684Y-26169244D01*
X39798411Y-26157814D01*
X39868063Y-26165672D01*
X39919855Y-26189247D01*
X39956467Y-26231395D01*
X39980577Y-26294974D01*
X39993971Y-26384628D01*
X39998436Y-26505001D01*
X39993435Y-26622694D01*
X39978434Y-26710026D01*
X39951823Y-26771641D01*
X39911997Y-26812182D01*
X39855740Y-26834685D01*
X39779837Y-26842186D01*
X39691969Y-26835756D01*
X39621246Y-26813611D01*
X39621246Y-26595012D01*
X39822700Y-26595012D01*
X39822700Y-26439278D01*
X39448367Y-26439278D01*
X39448367Y-26923624D01*
X39537307Y-26960772D01*
X39612674Y-26983632D01*
X39687683Y-26995419D01*
X39775551Y-26999348D01*
X39873182Y-26994348D01*
X39954621Y-26979346D01*
X40019867Y-26954343D01*
X40093269Y-26893978D01*
X40142025Y-26802895D01*
X40162266Y-26722012D01*
X40174410Y-26621285D01*
X40178459Y-26500714D01*
X40174649Y-26379350D01*
X40163219Y-26278147D01*
X40144169Y-26197105D01*
X40098270Y-26106022D01*
X40029154Y-26045657D01*
X39967797Y-26020654D01*
X39891359Y-26005652D01*
X39799840Y-26000652D01*
X39681611Y-26007081D01*
X39592671Y-26026369D01*
X39528556Y-26060659D01*
X39484800Y-26112094D01*
X39458190Y-26184961D01*
X39445510Y-26283544D01*
X39319780Y-26283544D01*
X39319780Y-26014939D01*
X39096895Y-26014939D01*
X38748280Y-26776463D01*
X38743994Y-26776463D01*
X38763996Y-26573581D01*
X38763996Y-26014939D01*
X38588260Y-26014939D01*
X38448242Y-26014939D01*
X38361089Y-26010653D01*
X38282507Y-26009224D01*
X38205355Y-26011010D01*
X38136775Y-26016368D01*
X38036365Y-26030656D01*
X37952307Y-26052563D01*
X37884600Y-26082091D01*
X37808341Y-26144777D01*
X37758156Y-26232824D01*
X37737519Y-26308786D01*
X37725136Y-26402369D01*
X37721009Y-26513573D01*
X36924552Y-26513573D01*
X36923885Y-26500000D01*
X36927723Y-26421880D01*
X36939199Y-26344512D01*
X36958204Y-26268642D01*
X36984554Y-26195000D01*
X37017994Y-26124295D01*
X37058205Y-26057208D01*
X37104797Y-25994386D01*
X37157322Y-25936433D01*
X37215275Y-25883907D01*
X37278098Y-25837315D01*
X37345184Y-25797105D01*
X37415889Y-25763664D01*
X37489531Y-25737314D01*
X37565402Y-25718310D01*
X37642769Y-25706833D01*
X37720890Y-25702996D01*
X37721009Y-25702996D01*
X40178459Y-25702996D01*
X40476115Y-25702996D01*
X40476115Y-27297004D01*
G37*
%TO.C,kibuzzard-64F1B3B3*%
G36*
X35387931Y-21071387D02*
G01*
X35387931Y-21332849D01*
X35203622Y-21332849D01*
X35115754Y-21302131D01*
X35092179Y-21191403D01*
X35116468Y-21103534D01*
X35206479Y-21074245D01*
X35275774Y-21071030D01*
X35326494Y-21069959D01*
X35387931Y-21071387D01*
G37*
G36*
X35646571Y-20617497D02*
G01*
X35722898Y-20628820D01*
X35797748Y-20647569D01*
X35870401Y-20673564D01*
X35940155Y-20706555D01*
X36006340Y-20746225D01*
X36068317Y-20792191D01*
X36125491Y-20844010D01*
X36177310Y-20901184D01*
X36223276Y-20963161D01*
X36262946Y-21029346D01*
X36295937Y-21099100D01*
X36321932Y-21171752D01*
X36340681Y-21246603D01*
X36352003Y-21322930D01*
X36355790Y-21400000D01*
X36352003Y-21477070D01*
X36340681Y-21553397D01*
X36321932Y-21628248D01*
X36295937Y-21700900D01*
X36262946Y-21770654D01*
X36223276Y-21836839D01*
X36177310Y-21898816D01*
X36125491Y-21955990D01*
X36068317Y-22007809D01*
X36006340Y-22053775D01*
X35940155Y-22093445D01*
X35870401Y-22126436D01*
X35797748Y-22152431D01*
X35722898Y-22171180D01*
X35646571Y-22182503D01*
X35569501Y-22186289D01*
X35569382Y-22186289D01*
X34856436Y-22186289D01*
X34507821Y-22186289D01*
X34030618Y-22186289D01*
X34030499Y-22186289D01*
X33953429Y-22182503D01*
X33877102Y-22171180D01*
X33802251Y-22152431D01*
X33729599Y-22126436D01*
X33659845Y-22093445D01*
X33593660Y-22053775D01*
X33531683Y-22007809D01*
X33474509Y-21955990D01*
X33422690Y-21898816D01*
X33376724Y-21836839D01*
X33337054Y-21770654D01*
X33304063Y-21700900D01*
X33278068Y-21628248D01*
X33259319Y-21553397D01*
X33247997Y-21477070D01*
X33244210Y-21400000D01*
X33247997Y-21322930D01*
X33259319Y-21246603D01*
X33278068Y-21171752D01*
X33304063Y-21099100D01*
X33337054Y-21029346D01*
X33376724Y-20963161D01*
X33410899Y-20917082D01*
X34030618Y-20917082D01*
X34030618Y-21078531D01*
X34507821Y-21078531D01*
X34507821Y-21322848D01*
X34087768Y-21322848D01*
X34087768Y-21482868D01*
X34507821Y-21482868D01*
X34507821Y-21888633D01*
X34690701Y-21888633D01*
X34856436Y-21888633D01*
X35052174Y-21888633D01*
X35119326Y-21598596D01*
X35170761Y-21513586D01*
X35220767Y-21496976D01*
X35296491Y-21491440D01*
X35387931Y-21491440D01*
X35387931Y-21888633D01*
X35569382Y-21888633D01*
X35569382Y-20918511D01*
X35399361Y-20912796D01*
X35315064Y-20911367D01*
X35218147Y-20914384D01*
X35136947Y-20923432D01*
X35071462Y-20938514D01*
X34997525Y-20974233D01*
X34948590Y-21027096D01*
X34921265Y-21100677D01*
X34912157Y-21198546D01*
X34927159Y-21313561D01*
X34977879Y-21377854D01*
X35079321Y-21410001D01*
X35079321Y-21422860D01*
X34990024Y-21467151D01*
X34962342Y-21513943D01*
X34937874Y-21585737D01*
X34856436Y-21888633D01*
X34690701Y-21888633D01*
X34690701Y-20917082D01*
X34030618Y-20917082D01*
X33410899Y-20917082D01*
X33422690Y-20901184D01*
X33474509Y-20844010D01*
X33531683Y-20792191D01*
X33593660Y-20746225D01*
X33659845Y-20706555D01*
X33729599Y-20673564D01*
X33802251Y-20647569D01*
X33877102Y-20628820D01*
X33953429Y-20617497D01*
X34030499Y-20613711D01*
X34030618Y-20613711D01*
X35569382Y-20613711D01*
X35569501Y-20613711D01*
X35646571Y-20617497D01*
G37*
%TO.C,kibuzzard-64F1B328*%
G36*
X38270720Y-21732899D02*
G01*
X38157849Y-21737185D01*
X38071767Y-21725041D01*
X38007830Y-21700038D01*
X37962646Y-21658782D01*
X37932821Y-21597882D01*
X37916212Y-21513050D01*
X37910675Y-21400000D01*
X37916033Y-21293022D01*
X37932106Y-21212119D01*
X37960860Y-21153183D01*
X38004258Y-21112107D01*
X38065516Y-21085496D01*
X38147848Y-21069959D01*
X38214999Y-21064601D01*
X38270720Y-21062815D01*
X38270720Y-21732899D01*
G37*
G36*
X40465756Y-22192004D02*
G01*
X40168100Y-22192004D01*
X39725188Y-22192004D01*
X38569329Y-22192004D01*
X38200711Y-22192004D01*
X37726366Y-22192004D01*
X37726247Y-22192004D01*
X37648617Y-22188190D01*
X37571735Y-22176786D01*
X37496341Y-22157900D01*
X37423161Y-22131716D01*
X37352899Y-22098485D01*
X37286234Y-22058527D01*
X37223805Y-22012227D01*
X37166216Y-21960031D01*
X37114020Y-21902442D01*
X37067720Y-21840014D01*
X37027762Y-21773348D01*
X36994531Y-21703087D01*
X36968347Y-21629907D01*
X36949462Y-21554512D01*
X36938057Y-21477630D01*
X36934735Y-21410001D01*
X37726366Y-21410001D01*
X37731129Y-21526286D01*
X37745416Y-21623679D01*
X37769229Y-21702181D01*
X37826736Y-21790942D01*
X37913533Y-21850056D01*
X37990526Y-21874663D01*
X38086253Y-21889426D01*
X38200711Y-21894348D01*
X38275800Y-21893077D01*
X38360096Y-21889267D01*
X38453600Y-21882918D01*
X38569329Y-21882918D01*
X38772211Y-21882918D01*
X38957949Y-21540018D01*
X38962235Y-21540018D01*
X39147973Y-21882918D01*
X39350855Y-21882918D01*
X39059390Y-21375711D01*
X39334873Y-20911367D01*
X39465155Y-20911367D01*
X39465155Y-21074245D01*
X39725188Y-21074245D01*
X39725188Y-21882918D01*
X39908068Y-21882918D01*
X39908068Y-21074245D01*
X40168100Y-21074245D01*
X40168100Y-20911367D01*
X39465155Y-20911367D01*
X39334873Y-20911367D01*
X39336568Y-20908510D01*
X39136543Y-20908510D01*
X38962235Y-21228550D01*
X38957949Y-21228550D01*
X38786499Y-20908510D01*
X38583616Y-20908510D01*
X38860794Y-21375711D01*
X38569329Y-21882918D01*
X38453600Y-21882918D01*
X38453600Y-20911367D01*
X38366446Y-20907081D01*
X38287865Y-20905652D01*
X38210713Y-20907438D01*
X38142133Y-20912796D01*
X38041723Y-20927084D01*
X37957665Y-20948991D01*
X37889958Y-20978519D01*
X37813699Y-21041205D01*
X37763514Y-21129252D01*
X37742876Y-21205214D01*
X37730494Y-21298797D01*
X37726366Y-21410001D01*
X36934735Y-21410001D01*
X36934244Y-21400000D01*
X36938057Y-21322370D01*
X36949462Y-21245488D01*
X36968347Y-21170093D01*
X36994531Y-21096913D01*
X37027762Y-21026652D01*
X37067720Y-20959986D01*
X37114020Y-20897558D01*
X37166216Y-20839969D01*
X37223805Y-20787773D01*
X37286234Y-20741473D01*
X37352899Y-20701515D01*
X37423161Y-20668284D01*
X37496341Y-20642100D01*
X37571735Y-20623214D01*
X37648617Y-20611810D01*
X37726247Y-20607996D01*
X37726366Y-20607996D01*
X40168100Y-20607996D01*
X40465756Y-20607996D01*
X40465756Y-22192004D01*
G37*
%TO.C,kibuzzard-64F1B338*%
G36*
X40428252Y-29889861D02*
G01*
X40130595Y-29889861D01*
X39854847Y-29889861D01*
X38811859Y-29889861D01*
X38140347Y-29889861D01*
X37761728Y-29889861D01*
X37761609Y-29889861D01*
X37684189Y-29886057D01*
X37607515Y-29874684D01*
X37532324Y-29855849D01*
X37459342Y-29829736D01*
X37389271Y-29796595D01*
X37322786Y-29756745D01*
X37260527Y-29710571D01*
X37203093Y-29658516D01*
X37151038Y-29601082D01*
X37104864Y-29538823D01*
X37065014Y-29472338D01*
X37031873Y-29402267D01*
X37005759Y-29329284D01*
X36990020Y-29266449D01*
X37761728Y-29266449D01*
X37770836Y-29376106D01*
X37798161Y-29459331D01*
X37845846Y-29519695D01*
X37916033Y-29560772D01*
X38012831Y-29584346D01*
X38140347Y-29592204D01*
X38219821Y-29588990D01*
X38286794Y-29579346D01*
X38349480Y-29561486D01*
X38416095Y-29533626D01*
X38416095Y-29355032D01*
X38335550Y-29393965D01*
X38268220Y-29419326D01*
X38206248Y-29433256D01*
X38141775Y-29437899D01*
X38045871Y-29428434D01*
X37983899Y-29400037D01*
X37950144Y-29347710D01*
X37938893Y-29266449D01*
X37948180Y-29202156D01*
X37976040Y-29157864D01*
X38025332Y-29132147D01*
X38098913Y-29123574D01*
X38169636Y-29127861D01*
X38256075Y-29140719D01*
X38256075Y-28972127D01*
X38016045Y-28759243D01*
X38396093Y-28759243D01*
X38396093Y-28607796D01*
X38523252Y-28607796D01*
X38811859Y-29579346D01*
X39036173Y-29579346D01*
X39129122Y-29266449D01*
X39476228Y-29266449D01*
X39485336Y-29376106D01*
X39512661Y-29459331D01*
X39560346Y-29519695D01*
X39630533Y-29560772D01*
X39727331Y-29584346D01*
X39854847Y-29592204D01*
X39934321Y-29588990D01*
X40001294Y-29579346D01*
X40063980Y-29561486D01*
X40130595Y-29533626D01*
X40130595Y-29355032D01*
X40050050Y-29393965D01*
X39982720Y-29419326D01*
X39920748Y-29433256D01*
X39856275Y-29437899D01*
X39760371Y-29428434D01*
X39698399Y-29400037D01*
X39664644Y-29347710D01*
X39653393Y-29266449D01*
X39662680Y-29202156D01*
X39690540Y-29157864D01*
X39739832Y-29132147D01*
X39813413Y-29123574D01*
X39884136Y-29127861D01*
X39970575Y-29140719D01*
X39970575Y-28972127D01*
X39730545Y-28759243D01*
X40110593Y-28759243D01*
X40110593Y-28607796D01*
X39513375Y-28607796D01*
X39513375Y-28773531D01*
X39753405Y-28976413D01*
X39753405Y-28983557D01*
X39696255Y-28980699D01*
X39623211Y-28987843D01*
X39566954Y-29009274D01*
X39525698Y-29046243D01*
X39497659Y-29100000D01*
X39481586Y-29172688D01*
X39476228Y-29266449D01*
X39129122Y-29266449D01*
X39324780Y-28607796D01*
X39139043Y-28607796D01*
X38927588Y-29365033D01*
X38920444Y-29365033D01*
X38708989Y-28607796D01*
X38523252Y-28607796D01*
X38396093Y-28607796D01*
X37798875Y-28607796D01*
X37798875Y-28773531D01*
X38038905Y-28976413D01*
X38038905Y-28983557D01*
X37981755Y-28980699D01*
X37908711Y-28987843D01*
X37852454Y-29009274D01*
X37811198Y-29046243D01*
X37783159Y-29100000D01*
X37767086Y-29172688D01*
X37761728Y-29266449D01*
X36990020Y-29266449D01*
X36986925Y-29254094D01*
X36975552Y-29177420D01*
X36971748Y-29100000D01*
X36975552Y-29022580D01*
X36986925Y-28945906D01*
X37005759Y-28870716D01*
X37031873Y-28797733D01*
X37065014Y-28727662D01*
X37104864Y-28661177D01*
X37151038Y-28598918D01*
X37203093Y-28541484D01*
X37260527Y-28489429D01*
X37322786Y-28443255D01*
X37389271Y-28403405D01*
X37459342Y-28370264D01*
X37532324Y-28344151D01*
X37607515Y-28325316D01*
X37684189Y-28313943D01*
X37761609Y-28310139D01*
X37761728Y-28310139D01*
X40130595Y-28310139D01*
X40428252Y-28310139D01*
X40428252Y-29889861D01*
G37*
%TO.C,kibuzzard-64F1B350*%
G36*
X25974618Y-23969282D02*
G01*
X25884606Y-23969282D01*
X25806025Y-23965710D01*
X25747446Y-23954994D01*
X25678866Y-23907846D01*
X25658864Y-23813548D01*
X25681724Y-23723537D01*
X25758162Y-23678531D01*
X25822992Y-23668351D01*
X25910324Y-23664958D01*
X25974618Y-23664958D01*
X25974618Y-23969282D01*
G37*
G36*
X25148800Y-24332184D02*
G01*
X25035929Y-24336471D01*
X24949847Y-24324326D01*
X24885910Y-24299323D01*
X24840726Y-24258068D01*
X24810901Y-24197167D01*
X24794292Y-24112335D01*
X24788755Y-23999286D01*
X24794113Y-23892308D01*
X24810186Y-23811405D01*
X24838940Y-23752469D01*
X24882338Y-23711392D01*
X24943596Y-23684782D01*
X25025928Y-23669244D01*
X25093079Y-23663887D01*
X25148800Y-23662101D01*
X25148800Y-24332184D01*
G37*
G36*
X27126857Y-23211099D02*
G01*
X27203808Y-23222514D01*
X27279271Y-23241416D01*
X27352517Y-23267624D01*
X27422841Y-23300885D01*
X27489567Y-23340879D01*
X27552052Y-23387221D01*
X27609693Y-23439464D01*
X27661936Y-23497105D01*
X27708278Y-23559589D01*
X27748272Y-23626315D01*
X27781533Y-23696640D01*
X27807741Y-23769886D01*
X27826643Y-23845348D01*
X27838058Y-23922300D01*
X27841875Y-24000000D01*
X27838058Y-24077700D01*
X27826643Y-24154652D01*
X27807741Y-24230114D01*
X27781533Y-24303360D01*
X27748272Y-24373685D01*
X27708278Y-24440411D01*
X27661936Y-24502895D01*
X27609693Y-24560536D01*
X27552052Y-24612779D01*
X27489567Y-24659121D01*
X27422841Y-24699115D01*
X27352517Y-24732376D01*
X27279271Y-24758584D01*
X27203808Y-24777486D01*
X27126857Y-24788901D01*
X27049157Y-24792718D01*
X27049038Y-24792718D01*
X26687564Y-24792718D01*
X25974618Y-24792718D01*
X25078791Y-24792718D01*
X23855781Y-24792718D01*
X23558125Y-24792718D01*
X23558125Y-24482203D01*
X23855781Y-24482203D01*
X24391563Y-24482203D01*
X24391563Y-24323612D01*
X24212969Y-24323612D01*
X24212969Y-24009287D01*
X24604446Y-24009287D01*
X24609209Y-24125571D01*
X24623496Y-24222964D01*
X24647309Y-24301466D01*
X24704816Y-24390227D01*
X24791613Y-24449342D01*
X24868606Y-24473948D01*
X24964333Y-24488712D01*
X25078791Y-24493633D01*
X25153880Y-24492363D01*
X25238176Y-24488553D01*
X25331680Y-24482203D01*
X25331680Y-23819263D01*
X25477413Y-23819263D01*
X25486164Y-23926777D01*
X25512417Y-24006429D01*
X25559744Y-24062686D01*
X25631718Y-24100012D01*
X25695694Y-24115491D01*
X25775228Y-24124778D01*
X25870319Y-24127873D01*
X25974618Y-24127873D01*
X25974618Y-24482203D01*
X26157498Y-24482203D01*
X26157498Y-23510653D01*
X26340378Y-23510653D01*
X26340378Y-24165021D01*
X26348236Y-24280035D01*
X26371810Y-24365046D01*
X26413958Y-24425053D01*
X26477538Y-24465058D01*
X26567192Y-24487561D01*
X26687564Y-24495062D01*
X26812937Y-24487561D01*
X26906163Y-24465058D01*
X26972242Y-24425053D01*
X27016176Y-24365046D01*
X27040822Y-24280392D01*
X27049038Y-24166449D01*
X27049038Y-23510653D01*
X26866158Y-23510653D01*
X26866158Y-24159306D01*
X26849727Y-24265748D01*
X26795435Y-24319326D01*
X26687564Y-24335042D01*
X26588266Y-24319326D01*
X26538260Y-24266462D01*
X26523258Y-24160734D01*
X26523258Y-23510653D01*
X26340378Y-23510653D01*
X26157498Y-23510653D01*
X25934613Y-23506367D01*
X25823726Y-23509462D01*
X25731095Y-23518749D01*
X25656721Y-23534227D01*
X25573139Y-23571911D01*
X25518132Y-23629239D01*
X25487592Y-23710321D01*
X25477413Y-23819263D01*
X25331680Y-23819263D01*
X25331680Y-23510653D01*
X25244526Y-23506367D01*
X25165945Y-23504938D01*
X25088793Y-23506724D01*
X25020213Y-23512082D01*
X24919803Y-23526369D01*
X24835745Y-23548277D01*
X24768038Y-23577804D01*
X24691779Y-23640491D01*
X24641594Y-23728537D01*
X24620956Y-23804499D01*
X24608574Y-23898083D01*
X24604446Y-24009287D01*
X24212969Y-24009287D01*
X24212969Y-23669244D01*
X24381561Y-23669244D01*
X24381561Y-23510653D01*
X23865783Y-23510653D01*
X23865783Y-23669244D01*
X24034375Y-23669244D01*
X24034375Y-24323612D01*
X23855781Y-24323612D01*
X23855781Y-24482203D01*
X23558125Y-24482203D01*
X23558125Y-23207282D01*
X23855781Y-23207282D01*
X27049038Y-23207282D01*
X27049157Y-23207282D01*
X27126857Y-23211099D01*
G37*
%TO.C,kibuzzard-64F18FF4*%
G36*
X34770026Y-26382087D02*
G01*
X34574834Y-26382087D01*
X34671179Y-26024235D01*
X34673682Y-26024235D01*
X34770026Y-26382087D01*
G37*
G36*
X30955860Y-24789519D02*
G01*
X30757740Y-24789519D01*
X30855530Y-24426299D01*
X30858070Y-24426299D01*
X30955860Y-24789519D01*
G37*
G36*
X33299829Y-26004215D02*
G01*
X33299829Y-26233190D01*
X33138421Y-26233190D01*
X33061470Y-26206289D01*
X33040824Y-26109318D01*
X33062095Y-26032368D01*
X33140923Y-26006717D01*
X33246026Y-26002964D01*
X33299829Y-26004215D01*
G37*
G36*
X34041810Y-26270727D02*
G01*
X33962982Y-26270727D01*
X33894164Y-26267599D01*
X33842864Y-26258215D01*
X33782805Y-26216924D01*
X33765288Y-26134343D01*
X33785307Y-26055516D01*
X33852248Y-26016102D01*
X33909023Y-26007187D01*
X33985504Y-26004215D01*
X34041810Y-26004215D01*
X34041810Y-26270727D01*
G37*
G36*
X36031072Y-26995764D02*
G01*
X35133613Y-26995764D01*
X35027780Y-26995764D01*
X34317081Y-26995764D01*
X34041810Y-26995764D01*
X32834371Y-26995764D01*
X32817680Y-26995764D01*
X32417711Y-26995764D01*
X31280980Y-26995764D01*
X30838657Y-26995764D01*
X29826411Y-26995764D01*
X29772220Y-26995764D01*
X29666387Y-26995764D01*
X29583633Y-26719919D01*
X29826411Y-26719919D01*
X30004086Y-26719919D01*
X30166746Y-26419624D01*
X30170499Y-26419624D01*
X30333159Y-26719919D01*
X30510834Y-26719919D01*
X30255583Y-26275732D01*
X30496838Y-25869082D01*
X30610933Y-25869082D01*
X30610933Y-26011722D01*
X30838657Y-26011722D01*
X30838657Y-26719919D01*
X30998815Y-26719919D01*
X30998815Y-26492195D01*
X32097396Y-26492195D01*
X32104590Y-26575402D01*
X32126174Y-26637338D01*
X32164806Y-26681131D01*
X32223145Y-26709910D01*
X32305882Y-26725863D01*
X32417711Y-26731181D01*
X32532981Y-26725237D01*
X32558498Y-26719919D01*
X32834371Y-26719919D01*
X33005790Y-26719919D01*
X33064598Y-26465919D01*
X33109642Y-26391471D01*
X33153435Y-26376926D01*
X33219751Y-26372077D01*
X33299829Y-26372077D01*
X33299829Y-26719919D01*
X33458736Y-26719919D01*
X33458736Y-26139348D01*
X33606381Y-26139348D01*
X33614045Y-26233503D01*
X33637036Y-26303259D01*
X33678483Y-26352527D01*
X33741514Y-26385215D01*
X33797542Y-26398770D01*
X33867193Y-26406903D01*
X33950470Y-26409614D01*
X34041810Y-26409614D01*
X34041810Y-26719919D01*
X34201967Y-26719919D01*
X34317081Y-26719919D01*
X34475987Y-26719919D01*
X34537297Y-26515969D01*
X34807563Y-26515969D01*
X34868874Y-26719919D01*
X35027780Y-26719919D01*
X34773780Y-25869082D01*
X34571081Y-25869082D01*
X34328980Y-26680060D01*
X34317081Y-26719919D01*
X34201967Y-26719919D01*
X34201967Y-25869082D01*
X34006775Y-25865328D01*
X33909666Y-25868039D01*
X33828544Y-25876172D01*
X33763411Y-25889727D01*
X33690214Y-25922729D01*
X33667310Y-25946599D01*
X33642041Y-25972934D01*
X33615296Y-26043942D01*
X33606381Y-26139348D01*
X33458736Y-26139348D01*
X33458736Y-25870333D01*
X33309839Y-25865328D01*
X33236017Y-25864077D01*
X33151141Y-25866719D01*
X33080030Y-25874643D01*
X33022682Y-25887850D01*
X32957930Y-25919131D01*
X32915076Y-25965427D01*
X32891146Y-26029865D01*
X32883169Y-26115575D01*
X32896307Y-26216299D01*
X32940726Y-26272604D01*
X33029563Y-26300757D01*
X33029563Y-26312018D01*
X32951361Y-26350806D01*
X32927119Y-26391784D01*
X32905691Y-26454658D01*
X32834371Y-26719919D01*
X32558498Y-26719919D01*
X32618534Y-26707407D01*
X32678749Y-26675188D01*
X32718007Y-26626077D01*
X32738652Y-26556634D01*
X32743031Y-26463417D01*
X32586627Y-26463417D01*
X32566608Y-26544121D01*
X32513430Y-26583535D01*
X32468542Y-26591981D01*
X32407701Y-26594796D01*
X32314485Y-26586038D01*
X32267563Y-26555383D01*
X32253800Y-26493447D01*
X32273820Y-26429634D01*
X32339509Y-26381461D01*
X32394720Y-26358783D01*
X32469012Y-26334540D01*
X32562072Y-26303103D01*
X32631046Y-26271353D01*
X32679688Y-26236475D01*
X32711751Y-26195653D01*
X32729581Y-26145917D01*
X32735524Y-26084294D01*
X32728486Y-26005466D01*
X32707371Y-25946658D01*
X32669522Y-25904899D01*
X32612278Y-25877215D01*
X32531417Y-25861731D01*
X32422716Y-25856570D01*
X32316205Y-25861887D01*
X32236908Y-25877841D01*
X32180446Y-25906619D01*
X32143310Y-25949410D01*
X32142440Y-25950412D01*
X32121169Y-26012661D01*
X32114913Y-26096806D01*
X32273820Y-26096806D01*
X32291962Y-26033619D01*
X32338258Y-26002338D01*
X32427721Y-25992954D01*
X32519687Y-26001713D01*
X32565357Y-26030491D01*
X32579120Y-26089299D01*
X32530948Y-26153737D01*
X32463850Y-26184549D01*
X32358903Y-26220678D01*
X32268033Y-26253523D01*
X32200623Y-26286993D01*
X32152919Y-26324374D01*
X32121169Y-26368949D01*
X32103339Y-26423847D01*
X32097396Y-26492195D01*
X30998815Y-26492195D01*
X30998815Y-26011722D01*
X31226539Y-26011722D01*
X31226539Y-25869082D01*
X30610933Y-25869082D01*
X30496838Y-25869082D01*
X30498322Y-25866580D01*
X30496120Y-25866580D01*
X30323150Y-25866580D01*
X30170499Y-26146855D01*
X30166746Y-26146855D01*
X30016598Y-25866580D01*
X29838923Y-25866580D01*
X30081662Y-26275732D01*
X29826411Y-26719919D01*
X29583633Y-26719919D01*
X29107383Y-25132419D01*
X30496120Y-25132419D01*
X30657410Y-25132419D01*
X30719640Y-24925409D01*
X30993960Y-24925409D01*
X31056190Y-25132419D01*
X31217480Y-25132419D01*
X30959670Y-24268819D01*
X31280980Y-24268819D01*
X31280980Y-25132419D01*
X31430840Y-25132419D01*
X31430840Y-24695539D01*
X31415600Y-24470749D01*
X31420680Y-24470749D01*
X31554030Y-24844129D01*
X31682300Y-24844129D01*
X31815650Y-24470749D01*
X31820730Y-24470749D01*
X31805490Y-24695539D01*
X31805490Y-25132419D01*
X31955350Y-25132419D01*
X32143310Y-25132419D01*
X32619560Y-25132419D01*
X32619560Y-24991449D01*
X32460810Y-24991449D01*
X32460810Y-24409789D01*
X32610670Y-24409789D01*
X32610670Y-24268819D01*
X32817680Y-24268819D01*
X32817680Y-25132419D01*
X33015800Y-25132419D01*
X33325680Y-24455509D01*
X33329490Y-24455509D01*
X33311710Y-24635849D01*
X33311710Y-25132419D01*
X33467920Y-25132419D01*
X33667310Y-25132419D01*
X34143560Y-25132419D01*
X34143560Y-24991449D01*
X33984810Y-24991449D01*
X33984810Y-24409789D01*
X34134670Y-24409789D01*
X34134670Y-24268819D01*
X34328980Y-24268819D01*
X34328980Y-25132419D01*
X34478840Y-25132419D01*
X34478840Y-24695539D01*
X34463600Y-24470749D01*
X34468680Y-24470749D01*
X34602030Y-24844129D01*
X34730300Y-24844129D01*
X34863650Y-24470749D01*
X34868730Y-24470749D01*
X34853490Y-24695539D01*
X34853490Y-25132419D01*
X35003350Y-25132419D01*
X35003350Y-24268819D01*
X34811580Y-24268819D01*
X34673150Y-24682839D01*
X34659180Y-24682839D01*
X34518210Y-24268819D01*
X34328980Y-24268819D01*
X34134670Y-24268819D01*
X33676200Y-24268819D01*
X33676200Y-24409789D01*
X33826060Y-24409789D01*
X33826060Y-24991449D01*
X33667310Y-24991449D01*
X33667310Y-25132419D01*
X33467920Y-25132419D01*
X33467920Y-24268819D01*
X33269800Y-24268819D01*
X32959920Y-24945729D01*
X32956110Y-24945729D01*
X32973890Y-24765389D01*
X32973890Y-24268819D01*
X32817680Y-24268819D01*
X32610670Y-24268819D01*
X32152200Y-24268819D01*
X32152200Y-24409789D01*
X32302060Y-24409789D01*
X32302060Y-24991449D01*
X32143310Y-24991449D01*
X32143310Y-25132419D01*
X31955350Y-25132419D01*
X31955350Y-24268819D01*
X31763580Y-24268819D01*
X31625150Y-24682839D01*
X31611180Y-24682839D01*
X31470210Y-24268819D01*
X31280980Y-24268819D01*
X30959670Y-24268819D01*
X30753930Y-24268819D01*
X30496120Y-25132419D01*
X29107383Y-25132419D01*
X29107002Y-25131149D01*
X29772220Y-25131149D01*
X30371660Y-25131149D01*
X30371660Y-24268819D01*
X30209100Y-24268819D01*
X30209100Y-24988909D01*
X29772220Y-24988909D01*
X29772220Y-25131149D01*
X29107002Y-25131149D01*
X28768928Y-24004236D01*
X29666387Y-24004236D01*
X29772220Y-24004236D01*
X35027780Y-24004236D01*
X35133613Y-24004236D01*
X36031072Y-26995764D01*
G37*
%TD*%
%LPC*%
D10*
%TO.C,H2*%
X21800000Y-21400000D03*
D11*
X22400000Y-21400000D03*
D10*
X21800000Y-23940000D03*
D12*
X22400000Y-23940000D03*
%TD*%
D10*
%TO.C,H1*%
X42200000Y-29020000D03*
D11*
X41600000Y-29020000D03*
D10*
X42200000Y-26480000D03*
D12*
X41600000Y-26480000D03*
D10*
X42200000Y-23940000D03*
D11*
X41600000Y-23940000D03*
D10*
X42200000Y-21400000D03*
D12*
X41600000Y-21400000D03*
%TD*%
D13*
%TO.C,H4*%
X32000000Y-29300000D03*
%TD*%
%TO.C,H3*%
X32000000Y-21100000D03*
%TD*%
%LPD*%
M02*
